<svg xmlns="http://www.w3.org/2000/svg" xmlns:xlink="http://www.w3.org/1999/xlink" width="1080" zoomAndPan="magnify" viewBox="0 0 810 809.999993" height="1080" preserveAspectRatio="xMidYMid meet" version="1.0"><defs><clipPath id="a2b2816506"><path d="M 80.71875 81 L 729 81 L 729 729.28125 L 80.71875 729.28125 Z M 80.71875 81 " clip-rule="nonzero"/></clipPath><clipPath id="207a79219d"><path d="M 404.859375 81 C 225.839844 81 80.71875 226.121094 80.71875 405.140625 C 80.71875 584.160156 225.839844 729.28125 404.859375 729.28125 C 583.878906 729.28125 729 584.160156 729 405.140625 C 729 226.121094 583.878906 81 404.859375 81 Z M 404.859375 81 " clip-rule="nonzero"/></clipPath><clipPath id="1c526c9812"><path d="M 0.71875 0 L 649 0 L 649 648.28125 L 0.71875 648.28125 Z M 0.71875 0 " clip-rule="nonzero"/></clipPath><clipPath id="2b441157c7"><path d="M 324.859375 0 C 145.839844 0 0.71875 145.121094 0.71875 324.140625 C 0.71875 503.160156 145.839844 648.28125 324.859375 648.28125 C 503.878906 648.28125 649 503.160156 649 324.140625 C 649 145.121094 503.878906 0 324.859375 0 Z M 324.859375 0 " clip-rule="nonzero"/></clipPath><clipPath id="f96aa4bd5f"><rect x="0" width="649" y="0" height="649"/></clipPath><clipPath id="123237f3d1"><path d="M 80.714844 0 L 728.996094 0 L 728.996094 410.195312 L 80.714844 410.195312 Z M 80.714844 0 " clip-rule="nonzero"/></clipPath><clipPath id="9f0cce6e94"><path d="M 0.714844 0 L 648.996094 0 L 648.996094 410.195312 L 0.714844 410.195312 Z M 0.714844 0 " clip-rule="nonzero"/></clipPath><clipPath id="1845cf3d0a"><rect x="0" width="649" y="0" height="411"/></clipPath></defs><g clip-path="url(#a2b2816506)"><g clip-path="url(#207a79219d)"><g transform="matrix(1, 0, 0, 1, 80, 81)"><g clip-path="url(#f96aa4bd5f)"><g clip-path="url(#1c526c9812)"><g clip-path="url(#2b441157c7)"><path fill="#5971dd" d="M 0.71875 0 L 649 0 L 649 648.28125 L 0.71875 648.28125 Z M 0.71875 0 " fill-opacity="1" fill-rule="nonzero"/></g></g></g></g></g></g><g clip-path="url(#123237f3d1)"><g transform="matrix(1, 0, 0, 1, 80, 0.000000000000039746)"><g clip-path="url(#1845cf3d0a)"><g clip-path="url(#9f0cce6e94)"><path fill="#5971dd" d="M 0.714844 410.195312 L 0.714844 -410.285156 L 648.996094 -410.285156 L 648.996094 410.195312 Z M 0.714844 410.195312 " fill-opacity="1" fill-rule="nonzero"/></g></g></g></g></svg>