<svg xmlns="http://www.w3.org/2000/svg" xmlns:xlink="http://www.w3.org/1999/xlink" width="1080" zoomAndPan="magnify" viewBox="0 0 810 809.999993" height="1080" preserveAspectRatio="xMidYMid meet" version="1.0"><defs><clipPath id="10080d76e1"><path d="M 80.71875 81 L 729 81 L 729 729.28125 L 80.71875 729.28125 Z M 80.71875 81 " clip-rule="nonzero"/></clipPath><clipPath id="f186d8bc9a"><path d="M 404.859375 81 C 225.839844 81 80.71875 226.121094 80.71875 405.140625 C 80.71875 584.160156 225.839844 729.28125 404.859375 729.28125 C 583.878906 729.28125 729 584.160156 729 405.140625 C 729 226.121094 583.878906 81 404.859375 81 Z M 404.859375 81 " clip-rule="nonzero"/></clipPath><clipPath id="c3d17c5e85"><path d="M 0.71875 0 L 649 0 L 649 648.28125 L 0.71875 648.28125 Z M 0.71875 0 " clip-rule="nonzero"/></clipPath><clipPath id="bbbf34d463"><path d="M 324.859375 0 C 145.839844 0 0.71875 145.121094 0.71875 324.140625 C 0.71875 503.160156 145.839844 648.28125 324.859375 648.28125 C 503.878906 648.28125 649 503.160156 649 324.140625 C 649 145.121094 503.878906 0 324.859375 0 Z M 324.859375 0 " clip-rule="nonzero"/></clipPath><clipPath id="fe682ed0c4"><rect x="0" width="649" y="0" height="649"/></clipPath><clipPath id="266d407d7a"><path d="M 0 81 L 404.859375 81 L 404.859375 729.28125 L 0 729.28125 Z M 0 81 " clip-rule="nonzero"/></clipPath><clipPath id="a75779817d"><path d="M 0 0 L 404.859375 0 L 404.859375 648.28125 L 0 648.28125 Z M 0 0 " clip-rule="nonzero"/></clipPath><clipPath id="1d3f39a3ea"><rect x="0" width="405" y="0" height="649"/></clipPath></defs><g clip-path="url(#10080d76e1)"><g clip-path="url(#f186d8bc9a)"><g transform="matrix(1, 0, 0, 1, 80, 81)"><g clip-path="url(#fe682ed0c4)"><g clip-path="url(#c3d17c5e85)"><g clip-path="url(#bbbf34d463)"><path fill="#5971dd" d="M 0.71875 0 L 649 0 L 649 648.28125 L 0.71875 648.28125 Z M 0.71875 0 " fill-opacity="1" fill-rule="nonzero"/></g></g></g></g></g></g><g clip-path="url(#266d407d7a)"><g transform="matrix(1, 0, 0, 1, 0, 81)"><g clip-path="url(#1d3f39a3ea)"><g clip-path="url(#a75779817d)"><path fill="#5971dd" d="M -415.546875 0 L 404.9375 0 L 404.9375 648.28125 L -415.546875 648.28125 Z M -415.546875 0 " fill-opacity="1" fill-rule="nonzero"/></g></g></g></g></svg>