<svg xmlns="http://www.w3.org/2000/svg" xmlns:xlink="http://www.w3.org/1999/xlink" width="1080" zoomAndPan="magnify" viewBox="0 0 810 809.999993" height="1080" preserveAspectRatio="xMidYMid meet" version="1.0"><defs><clipPath id="6ada11f2ef"><path d="M 80.71875 81 L 729 81 L 729 729.28125 L 80.71875 729.28125 Z M 80.71875 81 " clip-rule="nonzero"/></clipPath><clipPath id="500e57e5b0"><path d="M 404.859375 81 C 225.839844 81 80.71875 226.121094 80.71875 405.140625 C 80.71875 584.160156 225.839844 729.28125 404.859375 729.28125 C 583.878906 729.28125 729 584.160156 729 405.140625 C 729 226.121094 583.878906 81 404.859375 81 Z M 404.859375 81 " clip-rule="nonzero"/></clipPath><clipPath id="8979faae24"><path d="M 0.71875 0 L 649 0 L 649 648.28125 L 0.71875 648.28125 Z M 0.71875 0 " clip-rule="nonzero"/></clipPath><clipPath id="504b39e221"><path d="M 324.859375 0 C 145.839844 0 0.71875 145.121094 0.71875 324.140625 C 0.71875 503.160156 145.839844 648.28125 324.859375 648.28125 C 503.878906 648.28125 649 503.160156 649 324.140625 C 649 145.121094 503.878906 0 324.859375 0 Z M 324.859375 0 " clip-rule="nonzero"/></clipPath><clipPath id="d2a014be49"><rect x="0" width="649" y="0" height="649"/></clipPath><clipPath id="50e0004e43"><path d="M 80.714844 0 L 728.996094 0 L 728.996094 410.195312 L 80.714844 410.195312 Z M 80.714844 0 " clip-rule="nonzero"/></clipPath><clipPath id="1e957649ba"><path d="M 0.714844 0 L 648.996094 0 L 648.996094 410.195312 L 0.714844 410.195312 Z M 0.714844 0 " clip-rule="nonzero"/></clipPath><clipPath id="a32a6ea2c5"><rect x="0" width="649" y="0" height="411"/></clipPath><clipPath id="2db66f645a"><path d="M 405 81 L 810 81 L 810 729.28125 L 405 729.28125 Z M 405 81 " clip-rule="nonzero"/></clipPath><clipPath id="423a5aec0c"><path d="M 0 0 L 405 0 L 405 648.28125 L 0 648.28125 Z M 0 0 " clip-rule="nonzero"/></clipPath><clipPath id="a3e540e4c9"><rect x="0" width="405" y="0" height="649"/></clipPath></defs><g clip-path="url(#6ada11f2ef)"><g clip-path="url(#500e57e5b0)"><g transform="matrix(1, 0, 0, 1, 80, 81)"><g clip-path="url(#d2a014be49)"><g clip-path="url(#8979faae24)"><g clip-path="url(#504b39e221)"><path fill="#5971dd" d="M 0.71875 0 L 649 0 L 649 648.28125 L 0.71875 648.28125 Z M 0.71875 0 " fill-opacity="1" fill-rule="nonzero"/></g></g></g></g></g></g><g clip-path="url(#50e0004e43)"><g transform="matrix(1, 0, 0, 1, 80, 0.000000000000039746)"><g clip-path="url(#a32a6ea2c5)"><g clip-path="url(#1e957649ba)"><path fill="#5971dd" d="M 0.714844 410.195312 L 0.714844 -410.285156 L 648.996094 -410.285156 L 648.996094 410.195312 Z M 0.714844 410.195312 " fill-opacity="1" fill-rule="nonzero"/></g></g></g></g><g clip-path="url(#2db66f645a)"><g transform="matrix(1, 0, 0, 1, 405, 81)"><g clip-path="url(#a3e540e4c9)"><g clip-path="url(#423a5aec0c)"><path fill="#5971dd" d="M 0 0 L 820.480469 0 L 820.480469 648.28125 L 0 648.28125 Z M 0 0 " fill-opacity="1" fill-rule="nonzero"/></g></g></g></g></svg>