<svg xmlns="http://www.w3.org/2000/svg" xmlns:xlink="http://www.w3.org/1999/xlink" width="1080" zoomAndPan="magnify" viewBox="0 0 810 809.999993" height="1080" preserveAspectRatio="xMidYMid meet" version="1.0"><defs><clipPath id="9a12370459"><path d="M 80.71875 81 L 729 81 L 729 729.28125 L 80.71875 729.28125 Z M 80.71875 81 " clip-rule="nonzero"/></clipPath><clipPath id="0927061713"><path d="M 404.859375 81 C 225.839844 81 80.71875 226.121094 80.71875 405.140625 C 80.71875 584.160156 225.839844 729.28125 404.859375 729.28125 C 583.878906 729.28125 729 584.160156 729 405.140625 C 729 226.121094 583.878906 81 404.859375 81 Z M 404.859375 81 " clip-rule="nonzero"/></clipPath><clipPath id="79472beb87"><path d="M 0.71875 0 L 649 0 L 649 648.28125 L 0.71875 648.28125 Z M 0.71875 0 " clip-rule="nonzero"/></clipPath><clipPath id="4695766754"><path d="M 324.859375 0 C 145.839844 0 0.71875 145.121094 0.71875 324.140625 C 0.71875 503.160156 145.839844 648.28125 324.859375 648.28125 C 503.878906 648.28125 649 503.160156 649 324.140625 C 649 145.121094 503.878906 0 324.859375 0 Z M 324.859375 0 " clip-rule="nonzero"/></clipPath><clipPath id="480e9b1dd8"><rect x="0" width="649" y="0" height="649"/></clipPath><clipPath id="f68ba86042"><path d="M 405 81 L 810 81 L 810 729.28125 L 405 729.28125 Z M 405 81 " clip-rule="nonzero"/></clipPath><clipPath id="c41566b442"><path d="M 0 0 L 405 0 L 405 648.28125 L 0 648.28125 Z M 0 0 " clip-rule="nonzero"/></clipPath><clipPath id="20c7a82662"><rect x="0" width="405" y="0" height="649"/></clipPath><clipPath id="1aad4a0c26"><path d="M 80.714844 399.792969 L 728.996094 399.792969 L 728.996094 810 L 80.714844 810 Z M 80.714844 399.792969 " clip-rule="nonzero"/></clipPath><clipPath id="5a86591007"><path d="M 0.714844 0.792969 L 648.996094 0.792969 L 648.996094 411 L 0.714844 411 Z M 0.714844 0.792969 " clip-rule="nonzero"/></clipPath><clipPath id="1a2bc15b5f"><rect x="0" width="649" y="0" height="411"/></clipPath></defs><g clip-path="url(#9a12370459)"><g clip-path="url(#0927061713)"><g transform="matrix(1, 0, 0, 1, 80, 81)"><g clip-path="url(#480e9b1dd8)"><g clip-path="url(#79472beb87)"><g clip-path="url(#4695766754)"><path fill="#5971dd" d="M 0.71875 0 L 649 0 L 649 648.28125 L 0.71875 648.28125 Z M 0.71875 0 " fill-opacity="1" fill-rule="nonzero"/></g></g></g></g></g></g><g clip-path="url(#f68ba86042)"><g transform="matrix(1, 0, 0, 1, 405, 81)"><g clip-path="url(#20c7a82662)"><g clip-path="url(#c41566b442)"><path fill="#5971dd" d="M 0 0 L 820.480469 0 L 820.480469 648.28125 L 0 648.28125 Z M 0 0 " fill-opacity="1" fill-rule="nonzero"/></g></g></g></g><g clip-path="url(#1aad4a0c26)"><g transform="matrix(1, 0, 0, 1, 80, 399)"><g clip-path="url(#1a2bc15b5f)"><g clip-path="url(#5a86591007)"><path fill="#5971dd" d="M 0.714844 821.195312 L 0.714844 0.714844 L 648.996094 0.714844 L 648.996094 821.195312 Z M 0.714844 821.195312 " fill-opacity="1" fill-rule="nonzero"/></g></g></g></g></svg>